if (_typeface_js && _typeface_js.loadFace) _typeface_js.loadFace({"glyphs":{"S":{"x_min":61.734375,"x_max":733.078125,"ha":795,"o":"m 416 937 l 550 922 l 696 860 l 696 744 l 696 628 l 545 707 l 430 725 l 330 668 l 450 582 l 579 529 l 687 439 l 733 288 l 704 159 l 626 65 l 511 7 l 371 -11 l 225 9 l 61 83 l 61 204 l 61 325 l 218 233 l 367 200 l 478 272 l 333 374 l 195 433 l 108 522 l 76 654 l 102 780 l 173 868 l 281 920 l 416 937 "},"a":{"x_min":37.625,"x_max":716.6875,"ha":800,"o":"m 716 683 l 716 546 l 716 409 l 716 273 l 716 136 l 716 0 l 610 0 l 504 0 l 504 22 l 371 -11 l 236 14 l 131 87 l 62 199 l 37 342 l 60 484 l 126 596 l 228 669 l 361 695 l 504 658 l 504 683 l 610 683 l 716 683 m 400 183 l 504 217 l 504 341 l 504 466 l 400 500 l 292 455 l 249 342 l 292 228 l 400 183 "},"T":{"x_min":20.25,"x_max":790,"ha":810,"o":"m 790 713 l 660 713 l 532 713 l 532 571 l 532 428 l 532 285 l 532 142 l 532 0 l 405 0 l 277 0 l 277 142 l 277 285 l 277 428 l 277 571 l 277 713 l 148 713 l 20 713 l 20 819 l 20 926 l 148 926 l 276 926 l 405 926 l 533 926 l 661 926 l 790 926 l 790 819 l 790 713 "},"N":{"x_min":75.234375,"x_max":1013.78125,"ha":1089,"o":"m 1013 0 l 877 0 l 742 0 l 657 109 l 572 219 l 489 329 l 404 439 l 319 549 l 319 411 l 319 274 l 319 136 l 319 0 l 196 0 l 75 0 l 75 132 l 75 264 l 75 396 l 75 529 l 75 661 l 75 793 l 75 926 l 210 926 l 346 926 l 431 816 l 516 706 l 599 596 l 684 486 l 769 376 l 769 513 l 769 651 l 769 788 l 769 926 l 891 926 l 1013 926 l 1013 793 l 1013 661 l 1013 529 l 1013 396 l 1013 264 l 1013 132 l 1013 0 "},"K":{"x_min":80.0625,"x_max":992.5625,"ha":1010,"o":"m 334 0 l 207 0 l 80 0 l 80 132 l 80 264 l 80 396 l 80 529 l 80 661 l 80 793 l 80 926 l 207 926 l 334 926 l 334 793 l 334 661 l 334 529 l 334 396 l 334 264 l 334 132 l 334 0 m 636 499 l 708 399 l 779 299 l 849 199 l 921 100 l 992 0 l 831 0 l 671 0 l 590 122 l 508 245 l 427 368 l 346 491 l 415 599 l 485 708 l 554 817 l 624 926 l 779 926 l 934 926 l 860 818 l 785 712 l 710 605 l 636 499 "},"d":{"x_min":37.625,"x_max":716.6875,"ha":800,"o":"m 716 926 l 716 793 l 716 661 l 716 529 l 716 396 l 716 264 l 716 132 l 716 0 l 610 0 l 504 0 l 504 25 l 361 -11 l 228 14 l 126 87 l 60 199 l 37 342 l 62 484 l 131 596 l 236 669 l 371 695 l 504 661 l 504 793 l 504 926 l 610 926 l 716 926 m 400 183 l 504 217 l 504 341 l 504 466 l 400 500 l 292 455 l 249 342 l 292 228 l 400 183 "},"Y":{"x_min":6.75,"x_max":961.6875,"ha":968,"o":"m 611 435 l 611 290 l 611 145 l 611 0 l 484 0 l 356 0 l 356 145 l 356 290 l 356 435 l 269 558 l 181 681 l 94 803 l 6 926 l 165 926 l 325 926 l 407 794 l 489 663 l 571 794 l 653 926 l 807 926 l 961 926 l 873 803 l 786 681 l 699 558 l 611 435 "},"E":{"x_min":80.0625,"x_max":735.015625,"ha":797,"o":"m 735 713 l 601 713 l 467 713 l 334 713 l 334 570 l 448 570 l 563 570 l 677 570 l 677 467 l 677 366 l 563 366 l 448 366 l 334 366 l 334 212 l 467 212 l 601 212 l 735 212 l 735 106 l 735 0 l 603 0 l 472 0 l 342 0 l 211 0 l 80 0 l 80 132 l 80 264 l 80 396 l 80 529 l 80 661 l 80 793 l 80 926 l 211 926 l 342 926 l 472 926 l 603 926 l 735 926 l 735 819 l 735 713 "},"j":{"x_min":-33.765625,"x_max":326.03125,"ha":395,"o":"m 197 938 l 326 810 l 197 681 l 68 810 l 197 938 m 303 578 l 303 453 l 303 327 l 303 203 l 303 78 l 303 -47 l 282 -182 l 218 -279 l 113 -338 l -33 -358 l -33 -159 l 54 -128 l 90 -29 l 90 91 l 90 213 l 90 335 l 90 457 l 90 578 l 196 578 l 303 578 "},"y":{"x_min":14.46875,"x_max":721.515625,"ha":737,"o":"m 477 0 l 436 -121 l 397 -242 l 288 -242 l 179 -242 l 218 -121 l 259 0 l 210 136 l 161 273 l 112 409 l 63 546 l 14 683 l 127 683 l 241 683 l 283 549 l 326 414 l 368 280 l 410 414 l 452 549 l 494 683 l 607 683 l 721 683 l 672 546 l 624 409 l 574 273 l 526 136 l 477 0 "},"Z":{"x_min":46.296875,"x_max":817,"ha":863,"o":"m 817 713 l 728 613 l 639 513 l 550 412 l 462 312 l 373 212 l 520 212 l 669 212 l 817 212 l 817 106 l 817 0 l 688 0 l 560 0 l 431 0 l 302 0 l 174 0 l 46 0 l 46 106 l 46 212 l 135 312 l 223 412 l 311 513 l 400 613 l 489 713 l 341 713 l 193 713 l 46 713 l 46 819 l 46 926 l 174 926 l 302 926 l 431 926 l 560 926 l 688 926 l 817 926 l 817 819 l 817 713 "},"u":{"x_min":70.421875,"x_max":719.578125,"ha":805,"o":"m 719 683 l 719 546 l 719 409 l 719 273 l 719 136 l 719 0 l 612 0 l 506 0 l 506 25 l 363 -11 l 233 10 l 141 74 l 87 172 l 70 299 l 70 428 l 70 555 l 70 683 l 176 683 l 282 683 l 282 563 l 282 441 l 282 321 l 408 191 l 506 222 l 506 376 l 506 530 l 506 683 l 612 683 l 719 683 "},"k":{"x_min":107.0625,"x_max":826.640625,"ha":842,"o":"m 385 241 l 319 172 l 319 0 l 213 0 l 107 0 l 107 132 l 107 264 l 107 396 l 107 529 l 107 661 l 107 793 l 107 926 l 213 926 l 319 926 l 319 803 l 319 680 l 319 557 l 319 435 l 397 517 l 475 600 l 553 683 l 683 683 l 814 683 l 721 588 l 629 492 l 537 397 l 609 298 l 681 198 l 754 99 l 826 0 l 693 0 l 561 0 l 473 120 l 385 241 "},"g":{"x_min":37.625,"x_max":716.6875,"ha":800,"o":"m 716 683 l 716 532 l 716 381 l 716 229 l 716 78 l 690 -58 l 619 -160 l 511 -222 l 377 -244 l 263 -230 l 169 -191 l 169 -9 l 351 -66 l 458 -27 l 504 78 l 361 41 l 228 63 l 126 127 l 60 229 l 37 368 l 62 507 l 131 609 l 236 673 l 371 695 l 504 661 l 504 683 l 610 683 l 716 683 m 249 368 l 292 259 l 400 218 l 504 248 l 504 368 l 504 488 l 400 517 l 292 476 l 249 368 "},"t":{"x_min":37.625,"x_max":421.515625,"ha":458,"o":"m 297 428 l 297 317 l 333 218 l 421 188 l 421 -11 l 273 8 l 168 67 l 105 164 l 83 299 l 83 428 l 37 428 l 37 604 l 83 604 l 83 799 l 190 799 l 297 799 l 297 604 l 421 604 l 421 428 l 297 428 "},"e":{"x_min":37.625,"x_max":762.015625,"ha":800,"o":"m 762 289 l 637 289 l 512 289 l 387 289 l 263 289 l 327 204 l 435 174 l 544 192 l 641 248 l 641 57 l 535 3 l 408 -11 l 256 14 l 139 87 l 64 199 l 37 342 l 65 484 l 141 596 l 256 669 l 400 695 l 516 679 l 616 628 l 693 546 l 743 433 l 762 289 m 257 431 l 393 431 l 529 431 l 400 544 l 257 431 "},"J":{"x_min":-4.828125,"x_max":603.828125,"ha":684,"o":"m 603 926 l 603 782 l 603 639 l 603 495 l 603 353 l 580 203 l 515 88 l 408 14 l 265 -11 l 116 9 l -4 71 l -4 208 l -4 346 l 102 269 l 203 241 l 304 271 l 349 379 l 349 516 l 349 652 l 349 789 l 349 926 l 476 926 l 603 926 "},"W":{"x_min":-11.578125,"x_max":1400.578125,"ha":1389,"o":"m 1111 0 l 983 0 l 856 0 l 816 141 l 775 283 l 735 425 l 694 567 l 653 425 l 613 283 l 572 141 l 532 0 l 405 0 l 277 0 l 236 132 l 194 264 l 153 396 l 112 529 l 71 661 l 29 793 l -11 926 l 115 926 l 243 926 l 283 784 l 324 642 l 364 500 l 405 358 l 445 500 l 486 642 l 526 784 l 567 926 l 694 926 l 821 926 l 862 784 l 902 642 l 943 500 l 983 358 l 1024 500 l 1064 642 l 1105 784 l 1145 926 l 1273 926 l 1400 926 l 1359 793 l 1317 661 l 1276 529 l 1235 396 l 1194 264 l 1152 132 l 1111 0 "},"v":{"x_min":14.46875,"x_max":721.515625,"ha":737,"o":"m 477 0 l 368 0 l 259 0 l 210 136 l 161 273 l 112 409 l 63 546 l 14 683 l 127 683 l 241 683 l 283 549 l 326 414 l 368 280 l 410 414 l 452 549 l 494 683 l 607 683 l 721 683 l 672 546 l 624 409 l 574 273 l 526 136 l 477 0 "},"s":{"x_min":63.65625,"x_max":626.015625,"ha":684,"o":"m 353 692 l 466 681 l 591 632 l 591 432 l 454 495 l 356 513 l 289 480 l 370 430 l 484 391 l 583 326 l 626 213 l 590 90 l 488 15 l 330 -10 l 205 5 l 63 62 l 63 166 l 64 271 l 204 200 l 340 174 l 413 216 l 319 273 l 195 317 l 109 383 l 76 482 l 109 600 l 202 670 l 353 692 "},"B":{"x_min":80.0625,"x_max":864.265625,"ha":905,"o":"m 80 926 l 210 926 l 341 926 l 471 926 l 648 893 l 764 804 l 806 673 l 779 571 l 707 491 l 820 401 l 864 268 l 839 159 l 767 74 l 657 19 l 514 0 l 369 0 l 224 0 l 80 0 l 80 132 l 80 264 l 80 396 l 80 529 l 80 661 l 80 793 l 80 926 m 334 731 l 334 572 l 463 572 l 551 651 l 463 731 l 334 731 m 334 385 l 334 194 l 505 194 l 609 290 l 505 385 l 334 385 "},"H":{"x_min":80.0625,"x_max":955.90625,"ha":1037,"o":"m 955 0 l 822 0 l 690 0 l 690 116 l 690 233 l 690 350 l 575 350 l 460 350 l 345 350 l 345 233 l 345 116 l 345 0 l 212 0 l 80 0 l 80 132 l 80 264 l 80 396 l 80 529 l 80 661 l 80 793 l 80 926 l 212 926 l 345 926 l 345 813 l 345 701 l 345 588 l 460 588 l 575 588 l 690 588 l 690 701 l 690 813 l 690 926 l 822 926 l 955 926 l 955 793 l 955 661 l 955 529 l 955 396 l 955 264 l 955 132 l 955 0 "},"c":{"x_min":38.578125,"x_max":590.328125,"ha":637,"o":"m 382 695 l 497 679 l 590 626 l 590 521 l 590 417 l 409 491 l 299 450 l 250 342 l 299 233 l 409 191 l 590 266 l 590 162 l 590 57 l 497 3 l 382 -11 l 246 14 l 136 87 l 64 199 l 38 342 l 64 484 l 136 596 l 246 669 l 382 695 "},"q":{"x_min":37.625,"x_max":716.6875,"ha":800,"o":"m 716 683 l 716 551 l 716 419 l 716 287 l 716 154 l 716 22 l 716 -109 l 716 -242 l 610 -242 l 504 -242 l 504 -109 l 504 22 l 371 -11 l 236 14 l 131 87 l 62 199 l 37 342 l 60 484 l 126 596 l 228 669 l 361 695 l 504 658 l 504 683 l 610 683 l 716 683 m 400 183 l 504 217 l 504 341 l 504 466 l 400 500 l 292 455 l 249 342 l 292 228 l 400 183 "},"b":{"x_min":82.953125,"x_max":762.015625,"ha":800,"o":"m 428 695 l 563 669 l 668 596 l 736 484 l 762 342 l 738 199 l 674 87 l 572 14 l 438 -11 l 296 25 l 296 0 l 189 0 l 82 0 l 82 132 l 82 264 l 82 396 l 82 529 l 82 661 l 82 793 l 82 926 l 189 926 l 296 926 l 296 793 l 296 662 l 428 695 m 400 183 l 507 228 l 549 342 l 507 455 l 400 500 l 296 466 l 296 341 l 296 217 l 400 183 "},"D":{"x_min":80.0625,"x_max":974.234375,"ha":994,"o":"m 80 926 l 211 926 l 343 926 l 474 926 l 607 910 l 726 866 l 827 796 l 905 704 l 955 591 l 974 463 l 955 334 l 905 221 l 827 129 l 726 59 l 607 15 l 474 0 l 343 0 l 211 0 l 80 0 l 80 132 l 80 264 l 80 396 l 80 529 l 80 661 l 80 793 l 80 926 m 334 696 l 334 541 l 334 384 l 334 229 l 474 229 l 587 258 l 667 338 l 698 463 l 667 587 l 587 667 l 474 696 l 334 696 "},"I":{"x_min":96.453125,"x_max":351.109375,"ha":448,"o":"m 351 0 l 223 0 l 96 0 l 96 132 l 96 264 l 96 396 l 96 529 l 96 661 l 96 793 l 96 926 l 223 926 l 351 926 l 351 793 l 351 661 l 351 529 l 351 396 l 351 264 l 351 132 l 351 0 "},"G":{"x_min":20.25,"x_max":879.703125,"ha":931,"o":"m 546 937 l 649 930 l 767 906 l 879 856 l 879 727 l 879 599 l 729 672 l 563 699 l 420 670 l 328 588 l 296 461 l 328 328 l 419 241 l 554 209 l 667 229 l 667 347 l 520 347 l 520 533 l 640 533 l 760 533 l 879 533 l 879 385 l 879 237 l 879 89 l 767 33 l 647 0 l 527 -11 l 390 4 l 269 51 l 166 123 l 87 218 l 37 332 l 20 463 l 35 586 l 81 698 l 157 795 l 260 871 l 390 920 l 546 937 "},"z":{"x_min":56.90625,"x_max":626.984375,"ha":684,"o":"m 626 489 l 528 390 l 429 293 l 330 194 l 478 194 l 626 194 l 626 0 l 484 0 l 341 0 l 199 0 l 56 0 l 56 194 l 156 293 l 255 390 l 354 489 l 205 489 l 56 489 l 56 683 l 199 683 l 341 683 l 484 683 l 626 683 l 626 489 "},"U":{"x_min":72.34375,"x_max":905.75,"ha":979,"o":"m 905 926 l 905 794 l 905 662 l 905 531 l 905 400 l 884 259 l 824 145 l 734 59 l 620 6 l 489 -11 l 357 6 l 243 59 l 153 144 l 93 259 l 72 400 l 72 531 l 72 662 l 72 794 l 72 926 l 204 926 l 337 926 l 337 794 l 337 662 l 337 531 l 337 400 l 381 267 l 489 221 l 597 267 l 640 400 l 640 531 l 640 662 l 640 794 l 640 926 l 772 926 l 905 926 "},"w":{"x_min":14.46875,"x_max":1067.796875,"ha":1083,"o":"m 855 0 l 672 0 l 628 136 l 585 272 l 542 408 l 498 272 l 454 136 l 410 0 l 227 0 l 185 136 l 142 273 l 99 409 l 56 546 l 14 683 l 125 683 l 237 683 l 270 561 l 302 439 l 335 317 l 376 439 l 415 561 l 456 683 l 626 683 l 666 561 l 707 439 l 747 317 l 780 439 l 813 561 l 845 683 l 956 683 l 1067 683 l 1025 546 l 982 409 l 940 273 l 898 136 l 855 0 "},"F":{"x_min":80.0625,"x_max":735.015625,"ha":742,"o":"m 735 713 l 601 713 l 467 713 l 334 713 l 334 552 l 448 552 l 563 552 l 677 552 l 677 450 l 677 349 l 563 349 l 448 349 l 334 349 l 334 232 l 334 116 l 334 0 l 207 0 l 80 0 l 80 132 l 80 264 l 80 396 l 80 529 l 80 661 l 80 793 l 80 926 l 211 926 l 342 926 l 472 926 l 603 926 l 735 926 l 735 819 l 735 713 "},"r":{"x_min":83.921875,"x_max":575.859375,"ha":579,"o":"m 432 695 l 575 643 l 575 534 l 575 426 l 402 483 l 297 452 l 297 301 l 297 150 l 297 0 l 190 0 l 83 0 l 83 136 l 83 273 l 83 409 l 83 546 l 83 683 l 190 683 l 297 683 l 297 655 l 432 695 "},"x":{"x_min":14.46875,"x_max":774.5625,"ha":789,"o":"m 394 200 l 342 100 l 290 0 l 152 0 l 14 0 l 95 115 l 175 232 l 256 348 l 179 460 l 101 572 l 24 683 l 162 683 l 299 683 l 347 589 l 394 495 l 441 589 l 489 683 l 626 683 l 765 683 l 687 572 l 610 460 l 532 348 l 613 232 l 693 115 l 774 0 l 636 0 l 498 0 l 446 100 l 394 200 "},"V":{"x_min":19.296875,"x_max":1011.84375,"ha":1031,"o":"m 653 0 l 515 0 l 378 0 l 327 132 l 275 264 l 224 396 l 172 529 l 121 661 l 70 793 l 19 926 l 159 926 l 299 926 l 343 806 l 386 686 l 429 567 l 472 447 l 516 327 l 559 447 l 601 567 l 645 686 l 687 806 l 731 926 l 871 926 l 1011 926 l 960 793 l 909 661 l 858 529 l 806 396 l 755 264 l 704 132 l 653 0 "},"Q":{"x_min":20.25,"x_max":1021.5,"ha":1042,"o":"m 1021 463 l 991 295 l 906 156 l 1021 0 l 892 0 l 763 0 l 738 33 l 634 0 l 520 -11 l 387 4 l 268 51 l 166 123 l 88 218 l 38 332 l 20 463 l 38 593 l 88 707 l 166 802 l 268 874 l 387 921 l 520 937 l 653 921 l 773 874 l 874 802 l 953 707 l 1003 593 l 1021 463 m 520 226 l 590 237 l 509 347 l 613 347 l 718 347 l 745 463 l 714 586 l 634 669 l 520 699 l 407 669 l 327 586 l 296 463 l 327 339 l 407 256 l 520 226 "},"h":{"x_min":83.921875,"x_max":733.078125,"ha":800,"o":"m 439 695 l 570 673 l 661 609 l 715 511 l 733 383 l 733 255 l 733 128 l 733 0 l 626 0 l 520 0 l 520 120 l 520 242 l 520 362 l 395 491 l 297 461 l 297 307 l 297 153 l 297 0 l 190 0 l 83 0 l 83 132 l 83 264 l 83 396 l 83 529 l 83 661 l 83 793 l 83 926 l 190 926 l 297 926 l 297 791 l 297 658 l 439 695 "},"M":{"x_min":81.03125,"x_max":1141.109375,"ha":1222,"o":"m 1141 0 l 1013 0 l 886 0 l 886 139 l 886 278 l 886 418 l 886 558 l 815 453 l 744 347 l 673 242 l 543 242 l 470 347 l 397 452 l 325 557 l 325 417 l 325 278 l 325 138 l 325 0 l 202 0 l 81 0 l 81 132 l 81 264 l 81 396 l 81 529 l 81 661 l 81 793 l 81 926 l 222 926 l 365 926 l 447 809 l 530 693 l 612 576 l 692 693 l 771 809 l 851 926 l 996 926 l 1141 926 l 1141 793 l 1141 661 l 1141 529 l 1141 396 l 1141 264 l 1141 132 l 1141 0 "},"C":{"x_min":20.25,"x_max":826.640625,"ha":873,"o":"m 499 937 l 632 926 l 737 898 l 826 855 l 826 718 l 826 581 l 689 669 l 536 699 l 414 670 l 328 588 l 296 463 l 328 337 l 414 255 l 536 226 l 689 256 l 826 344 l 826 207 l 826 70 l 737 25 l 632 -2 l 499 -11 l 372 4 l 257 51 l 160 123 l 85 218 l 37 332 l 20 463 l 37 593 l 85 707 l 160 802 l 257 874 l 372 921 l 499 937 "},"f":{"x_min":37.625,"x_max":421.515625,"ha":458,"o":"m 421 937 l 421 737 l 333 707 l 297 608 l 297 604 l 421 604 l 421 428 l 297 428 l 297 285 l 297 142 l 297 0 l 190 0 l 83 0 l 83 142 l 83 285 l 83 428 l 37 428 l 37 604 l 83 604 l 83 626 l 105 761 l 168 858 l 273 917 l 421 937 "},"L":{"x_min":82.953125,"x_max":737.90625,"ha":748,"o":"m 337 238 l 470 238 l 604 238 l 737 238 l 737 118 l 737 0 l 606 0 l 475 0 l 345 0 l 214 0 l 82 0 l 82 132 l 82 264 l 82 396 l 82 529 l 82 661 l 82 793 l 82 926 l 210 926 l 337 926 l 337 788 l 337 651 l 337 513 l 337 376 l 337 238 "},"i":{"x_min":68.484375,"x_max":326.03125,"ha":395,"o":"m 197 938 l 326 810 l 197 681 l 68 810 l 197 938 m 303 0 l 196 0 l 90 0 l 90 144 l 90 289 l 90 434 l 90 578 l 196 578 l 303 578 l 303 434 l 303 289 l 303 144 l 303 0 "},"A":{"x_min":19.296875,"x_max":1011.84375,"ha":1031,"o":"m 342 189 l 273 0 l 146 0 l 19 0 l 70 132 l 121 264 l 172 396 l 224 529 l 275 661 l 327 793 l 378 926 l 515 926 l 653 926 l 704 793 l 755 661 l 806 529 l 858 396 l 909 264 l 960 132 l 1011 0 l 884 0 l 757 0 l 689 189 l 573 189 l 458 189 l 342 189 m 516 708 l 465 554 l 416 401 l 614 401 l 565 554 l 516 708 "},"n":{"x_min":83.921875,"x_max":733.078125,"ha":800,"o":"m 439 695 l 570 673 l 661 609 l 715 511 l 733 383 l 733 255 l 733 128 l 733 0 l 626 0 l 520 0 l 520 120 l 520 242 l 520 362 l 395 491 l 297 461 l 297 307 l 297 153 l 297 0 l 190 0 l 83 0 l 83 136 l 83 273 l 83 409 l 83 546 l 83 683 l 190 683 l 297 683 l 297 658 l 439 695 "},"O":{"x_min":20.25,"x_max":1021.5,"ha":1042,"o":"m 520 937 l 653 921 l 773 874 l 874 802 l 953 707 l 1003 593 l 1021 463 l 1003 332 l 953 218 l 874 123 l 773 51 l 653 4 l 520 -11 l 387 4 l 268 51 l 166 123 l 88 218 l 38 332 l 20 463 l 38 593 l 88 707 l 166 802 l 268 874 l 387 921 l 520 937 m 520 699 l 407 669 l 327 586 l 296 463 l 327 339 l 407 256 l 520 226 l 634 256 l 714 339 l 745 463 l 714 586 l 634 669 l 520 699 "}," ":{"x_min":0,"x_max":0,"ha":315},"X":{"x_min":6.75,"x_max":1013.78125,"ha":1021,"o":"m 666 487 l 753 365 l 840 243 l 926 121 l 1013 0 l 854 0 l 695 0 l 632 100 l 569 200 l 506 300 l 442 200 l 378 100 l 314 0 l 160 0 l 6 0 l 93 119 l 180 239 l 267 359 l 354 479 l 273 591 l 194 702 l 114 814 l 35 926 l 194 926 l 354 926 l 434 795 l 515 665 l 596 795 l 677 926 l 830 926 l 984 926 l 904 816 l 825 706 l 745 597 l 666 487 "},"P":{"x_min":80.0625,"x_max":829.546875,"ha":853,"o":"m 80 926 l 214 926 l 347 926 l 481 926 l 616 899 l 727 828 l 802 722 l 829 593 l 802 463 l 727 357 l 616 286 l 481 260 l 334 260 l 334 130 l 334 0 l 207 0 l 80 0 l 80 132 l 80 264 l 80 396 l 80 529 l 80 661 l 80 793 l 80 926 m 334 713 l 334 593 l 334 472 l 449 472 l 570 593 l 449 713 l 334 713 "},"m":{"x_min":83.921875,"x_max":1196.078125,"ha":1263,"o":"m 902 695 l 1033 673 l 1124 609 l 1178 511 l 1196 383 l 1196 255 l 1196 128 l 1196 0 l 1089 0 l 983 0 l 983 120 l 983 242 l 983 362 l 858 491 l 746 383 l 746 255 l 746 128 l 746 0 l 640 0 l 534 0 l 534 120 l 534 242 l 534 362 l 408 491 l 297 451 l 297 300 l 297 150 l 297 0 l 190 0 l 83 0 l 83 136 l 83 273 l 83 409 l 83 546 l 83 683 l 190 683 l 297 683 l 297 652 l 452 695 l 581 673 l 673 611 l 778 673 l 902 695 "},"l":{"x_min":90.671875,"x_max":428.28125,"ha":458,"o":"m 302 926 l 302 804 l 302 682 l 302 560 l 302 438 l 302 317 l 339 218 l 428 188 l 428 -11 l 280 8 l 175 67 l 111 164 l 90 299 l 90 425 l 90 550 l 90 675 l 90 800 l 90 926 l 196 926 l 302 926 "},"p":{"x_min":82.953125,"x_max":762.015625,"ha":800,"o":"m 428 695 l 563 669 l 668 596 l 736 484 l 762 342 l 738 199 l 674 87 l 572 14 l 438 -11 l 296 25 l 296 -109 l 296 -242 l 189 -242 l 82 -242 l 82 -109 l 82 22 l 82 154 l 82 287 l 82 419 l 82 551 l 82 683 l 189 683 l 296 683 l 296 662 l 428 695 m 400 183 l 507 228 l 549 342 l 507 455 l 400 500 l 296 466 l 296 341 l 296 217 l 400 183 "},"R":{"x_min":81.984375,"x_max":887.421875,"ha":911,"o":"m 81 926 l 215 926 l 349 926 l 482 926 l 618 899 l 729 828 l 804 722 l 831 593 l 790 438 l 684 326 l 752 217 l 819 109 l 887 0 l 741 0 l 596 0 l 515 130 l 434 260 l 336 260 l 336 130 l 336 0 l 209 0 l 81 0 l 81 132 l 81 264 l 81 396 l 81 529 l 81 661 l 81 793 l 81 926 m 336 713 l 336 593 l 336 472 l 451 472 l 572 593 l 451 713 l 336 713 "},"o":{"x_min":37.625,"x_max":762.015625,"ha":800,"o":"m 400 695 l 543 669 l 657 596 l 734 484 l 762 342 l 734 199 l 657 87 l 543 14 l 400 -11 l 256 14 l 141 87 l 65 199 l 37 342 l 65 484 l 141 596 l 256 669 l 400 695 m 400 500 l 293 455 l 249 342 l 293 228 l 400 183 l 506 228 l 549 342 l 506 455 l 400 500 "}}}
